# xmcd CD database file
#
# Track frame offsets:
#	183
#	23115
#	46590
#	70935
#	89680
#	106438
#	130438
#	149548
#	172753
#	193895
#
# Disc length: 2855 seconds
#
# Revision: 0
# Processed by: cddbd v1.5.2PL0 Copyright (c) Steve Scherf et al.
# Submitted via: CDex 1.70beta2
#
DISCID=8d0b250a
DTITLE=Varios - Retosalsero De Colombia Pa'new York
DYEAR=1900
DGENRE=Salsa
TTITLE0=Sobrevivire/Juan Carlos Coronel
TTITLE1=Si Pudiera/Grupo Galé
TTITLE2=Caramelo/Tamba Fuego
TTITLE3=Que No Pudo Ser/Orquesta Canela
TTITLE4=Herencia Ritana/Grupo Latino Continental
TTITLE5=Mascaras/Tamba Fuego
TTITLE6=Mala Mujer/La Celestial
TTITLE7=Somos Guerreros/Grupo Niche
TTITLE8=Vuelve A Vivir/Morist Jimenez
TTITLE9=Toma Todo De Mi/Grupo Galé
EXTD=
EXTT0=
EXTT1=
EXTT2=
EXTT3=
EXTT4=
EXTT5=
EXTT6=
EXTT7=
EXTT8=
EXTT9=
PLAYORDER=
